<svg width="20" height="20" viewBox="0 0 20 20" fill="none" xmlns="http://www.w3.org/2000/svg">
<path d="M3.33317 16.6666C2.87484 16.6666 2.48234 16.5033 2.15567 16.1766C1.82901 15.85 1.66595 15.4578 1.66651 15V4.99998C1.66651 4.54165 1.82984 4.14915 2.15651 3.82248C2.48317 3.49581 2.87539 3.33276 3.33317 3.33331H16.6665C17.1248 3.33331 17.5173 3.49665 17.844 3.82331C18.1707 4.14998 18.3337 4.5422 18.3332 4.99998V15C18.3332 15.4583 18.1698 15.8508 17.8432 16.1775C17.5165 16.5041 17.1243 16.6672 16.6665 16.6666H3.33317ZM9.99984 10.8333L3.33317 6.66665V15H16.6665V6.66665L9.99984 10.8333ZM9.99984 9.16665L16.6665 4.99998H3.33317L9.99984 9.16665ZM3.33317 6.66665V4.99998V15V6.66665Z" fill="#26B3AA"/>
</svg>
