<svg width="24" height="24" viewBox="0 0 24 24" fill="none" xmlns="http://www.w3.org/2000/svg">
<path d="M12 0C6.99844 0 3 3.99844 3 9C3 10.7297 3.51562 12.0656 4.41094 13.4203L11.0531 23.4984C11.2547 23.8031 11.6016 24 12 24C12.3984 24 12.75 23.7984 12.9469 23.4984L19.5891 13.4203C20.4844 12.0656 21 10.7297 21 9C21 3.99844 17.0016 0 12 0ZM12 13.9969C9.23906 13.9969 6.99844 11.7563 6.99844 8.99063C6.99844 6.225 9.23906 3.98438 12 3.98438C14.7609 3.98438 17.0016 6.225 17.0016 8.99063C17.0016 11.7563 14.7609 13.9969 12 13.9969ZM12 6C10.3406 6 9 7.34062 9 9C9 10.6594 10.3406 12 12 12C13.6594 12 15 10.6594 15 9C15 7.34062 13.6594 6 12 6Z" fill="black"/>
</svg>
